<svg version="1.1" id="Layer_1" xmlns="http://www.w3.org/2000/svg" xmlns:xlink="http://www.w3.org/1999/xlink" x="0px" y="0px"
	 width="100%" viewBox="0 0 1232 904" enable-background="new 0 0 1232 904" xml:space="preserve">
<path fill="#2D2617" opacity="1.000000" stroke="none" 
	d="
M409.421204,900.198914 
	C405.836761,900.235840 402.680176,900.164856 399.523682,900.167358 
	C270.333252,900.270813 141.142807,900.380981 11.486198,900.505493 
	C9.055044,898.776367 7.090068,897.032043 5.125090,895.287720 
	C6.804122,893.430725 8.134924,890.916748 10.214100,889.814697 
	C44.287823,871.754761 78.457451,853.875732 112.602570,835.950439 
	C164.555237,808.676758 216.887039,782.094727 268.335144,753.900208 
	C308.783752,731.733704 347.604401,706.786377 382.559113,676.345154 
	C405.301086,656.539734 426.497620,635.298950 439.430878,607.547974 
	C455.066437,573.998596 457.687744,539.806335 439.692719,506.283234 
	C434.518555,496.644165 426.635132,488.276031 419.140900,480.107788 
	C407.230743,467.126465 395.941223,453.730560 390.039642,436.947021 
	C375.743683,396.290649 380.664581,358.211121 408.921234,325.044067 
	C436.546204,292.618408 471.759613,272.610382 514.318604,266.485718 
	C537.171265,263.196991 559.868286,264.872101 582.358215,269.450806 
	C585.646545,270.120300 588.481506,273.016388 591.526245,274.882233 
	C591.318726,275.630432 591.111206,276.378632 590.903625,277.126831 
	C587.923767,277.517670 584.949219,278.194244 581.963135,278.249695 
	C569.164185,278.487457 556.172485,277.186218 543.599670,278.942017 
	C516.263916,282.759430 496.910004,304.380432 495.997894,330.034088 
	C494.922546,360.279114 511.191315,383.533417 539.674255,389.645905 
	C552.651184,392.430756 566.349365,391.854828 580.391479,392.850861 
	C580.174988,394.064331 579.910645,396.442993 579.315613,398.735840 
	C575.551331,413.240570 577.578674,426.451050 589.277954,436.591766 
	C598.794373,444.840454 608.704773,452.751740 619.106201,459.835022 
	C635.130432,470.747253 650.930481,481.840668 663.393738,496.877960 
	C684.877075,522.798340 696.699768,552.809448 698.893127,586.274719 
	C702.427124,640.194153 687.481140,689.571716 658.310913,734.328308 
	C610.482422,807.712891 546.147095,861.181030 462.560608,889.471130 
	C445.717560,895.171753 427.456451,896.682678 409.421204,900.198914 
z"/>
<path fill="#EAAE40" opacity="1.000000" stroke="none" 
	d="
M766.001282,212.274231 
	C747.008057,212.423462 728.504517,212.245926 710.023499,212.808472 
	C691.134644,213.383438 674.121582,208.318710 657.630249,199.234787 
	C622.309875,179.779282 584.483276,168.729340 543.983643,166.701035 
	C497.926392,164.394409 454.911591,175.488373 413.643066,194.804581 
	C403.101715,199.738602 392.981995,205.570724 382.637543,210.930420 
	C380.810883,211.876846 378.830841,212.527206 376.921600,213.314285 
	C376.522644,213.001892 376.123688,212.689499 375.724731,212.377121 
	C376.633850,209.676178 377.206329,206.800735 378.502502,204.300415 
	C398.728485,165.283005 418.287506,125.893211 439.560272,87.452560 
	C460.726501,49.204376 494.569305,26.743311 536.497253,16.110588 
	C555.094482,11.394426 574.009094,8.943463 593.281433,8.951131 
	C796.277954,9.031897 999.274475,9.001642 1202.270996,8.996433 
	C1205.769897,8.996344 1209.275269,8.775489 1212.766479,8.922593 
	C1219.052246,9.187451 1222.202393,12.793589 1220.238892,18.699429 
	C1216.784302,29.090763 1212.720825,39.293900 1208.583008,49.441463 
	C1187.851685,100.281761 1167.012085,151.077896 1146.214355,201.891144 
	C1142.538940,210.870880 1139.454224,212.825806 1129.475220,212.710571 
	C1110.815552,212.495071 1092.155273,212.187286 1073.495239,212.184479 
	C971.163757,212.169083 868.832336,212.234589 766.001282,212.274231 
z"/>
<path fill="#E9AE40" opacity="1.000000" stroke="none" 
	d="
M949.000000,424.140564 
	C923.675598,424.328583 898.851257,424.533508 874.026672,424.695282 
	C865.273682,424.752319 864.241638,424.338501 862.406921,415.795593 
	C854.273193,377.923584 834.987854,346.331696 807.680115,319.547180 
	C781.775330,294.138885 750.692322,277.107819 716.275330,266.011566 
	C709.013733,263.670349 701.697021,261.499908 694.897461,259.402496 
	C696.054688,252.287811 697.100586,245.316940 698.426758,238.399826 
	C698.589294,237.551971 700.168213,236.649353 701.242126,236.383408 
	C702.656555,236.033188 704.220703,236.283463 705.720520,236.283447 
	C844.871277,236.282745 984.022095,236.282776 1123.172852,236.282791 
	C1125.310913,236.282791 1127.448975,236.282806 1130.558350,236.282806 
	C1129.462402,240.083542 1128.840820,243.293533 1127.634766,246.266403 
	C1104.620117,302.996704 1081.521362,359.692963 1058.492676,416.417664 
	C1056.348022,421.700317 1052.751709,424.066681 1046.988525,424.054932 
	C1014.492554,423.988617 981.996216,424.093719 949.000000,424.140564 
z"/>
<path fill="#DC602D" opacity="1.000000" stroke="none" 
	d="
M1013.211304,528.250732 
	C1003.041992,553.603943 992.983398,578.586060 983.017334,603.605042 
	C981.326477,607.849854 978.996643,610.567078 973.922058,610.555481 
	C892.619568,610.369873 811.316833,610.274841 730.014160,610.146362 
	C728.556946,610.144043 727.099976,609.983521 725.049805,609.861572 
	C727.396240,544.097046 703.955139,490.050995 650.953674,448.000488 
	C654.129517,448.000488 655.838318,448.000488 657.547180,448.000488 
	C692.699097,448.000336 727.887146,448.966797 762.989990,447.653778 
	C785.679810,446.805084 805.239929,452.773346 823.315369,465.678894 
	C830.222778,470.610657 837.348511,475.237061 844.384888,479.987610 
	C853.491028,486.135651 857.217957,484.897675 860.735779,474.365845 
	C862.102722,470.273376 863.162231,466.074066 864.256775,461.895935 
	C865.347046,457.734070 866.305542,453.537689 867.378113,449.124756 
	C926.274597,449.124756 985.026184,449.124756 1045.160278,449.124756 
	C1034.414795,475.734985 1023.883972,501.813507 1013.211304,528.250732 
z"/>
<path fill="#2C6269" opacity="1.000000" stroke="none" 
	d="
M947.371033,691.410889 
	C935.300171,721.354431 923.356750,750.935059 911.551025,780.570496 
	C909.806335,784.950195 907.291443,787.225037 902.317932,787.220093 
	C820.688232,787.138611 739.058411,787.162964 657.428650,787.153687 
	C656.940247,787.153625 656.451843,787.013977 655.339478,786.844360 
	C656.341675,785.100830 657.186035,783.571167 658.086121,782.074951 
	C670.688538,761.125305 683.597290,740.352905 695.828064,719.188599 
	C709.807434,694.998474 717.370239,668.518005 722.019958,641.125122 
	C722.323242,639.338440 722.737976,637.570618 723.128601,635.658142 
	C805.101746,635.658142 886.823120,635.658142 969.729614,635.658142 
	C962.174683,654.525452 954.858826,672.795593 947.371033,691.410889 
z"/>
<path fill="#DD602D" opacity="1.000000" stroke="none" 
	d="
M345.000000,610.157288 
	C282.730682,610.157349 220.961395,610.157349 158.664993,610.157349 
	C159.240448,608.590820 159.497604,607.496521 160.013702,606.542236 
	C187.311813,556.066101 214.643845,505.608276 241.930923,455.126160 
	C244.666153,450.065887 248.663818,447.774597 254.466080,447.799316 
	C289.281982,447.947632 324.098663,448.008362 358.914703,447.928986 
	C363.461487,447.918610 366.537903,449.537964 368.719177,453.382812 
	C372.413330,459.894379 375.827576,466.602631 380.002411,472.794708 
	C386.129181,481.881866 392.381500,490.951660 399.356628,499.386963 
	C420.273987,524.683105 425.346344,552.617859 414.275146,583.427673 
	C411.921265,589.978271 408.621643,596.183167 406.065155,602.668518 
	C403.740112,608.566650 399.427277,610.284973 393.476227,610.217834 
	C377.485962,610.037292 361.492310,610.156860 345.000000,610.157288 
z"/>
<path fill="#2C6268" opacity="1.000000" stroke="none" 
	d="
M329.974884,683.968811 
	C301.614807,705.144592 271.816132,723.435791 240.730179,739.448914 
	C173.029938,774.322693 105.008759,808.573547 37.110413,843.062622 
	C35.338776,843.962585 33.471500,844.674316 30.399921,846.021545 
	C32.114742,842.477722 33.253353,839.867859 34.603653,837.372498 
	C57.319057,795.395508 80.066521,753.435913 102.794525,711.465759 
	C115.147522,688.654358 127.582710,665.886353 139.741623,642.971863 
	C142.679993,637.434204 146.059402,634.934387 152.863403,634.956848 
	C228.676086,635.207397 304.490112,635.048462 380.303802,635.000122 
	C382.301727,634.998840 384.299652,634.999878 387.407166,634.999878 
	C369.608246,653.609070 350.211914,669.004700 329.974884,683.968811 
z"/>
<path fill="#1C3B61" opacity="1.000000" stroke="none" 
	d="
M759.979370,899.016602 
	C736.547852,899.637146 713.572021,900.689209 690.593506,900.751099 
	C630.435181,900.913208 570.275635,900.642822 510.116608,900.545349 
	C508.185608,900.542236 506.254608,900.544922 504.137268,899.425232 
	C506.735352,898.012695 509.265839,896.455017 511.941620,895.209351 
	C553.562073,875.834229 590.349487,849.483582 623.367676,817.766968 
	C628.256287,813.071045 633.463013,810.872925 640.274475,810.879761 
	C725.430359,810.965210 810.586365,810.878113 895.742371,810.835388 
	C896.571106,810.834961 897.399841,810.835388 898.315857,810.835388 
	C878.213745,848.098022 829.868530,891.698242 759.979370,899.016602 
z"/>
<path fill="#DF6630" opacity="1.000000" stroke="none" 
	d="
M735.636047,306.342407 
	C776.708618,325.594177 807.190002,355.721161 829.636475,394.236206 
	C838.189087,408.911285 842.537109,425.190002 844.797607,441.974365 
	C845.092957,444.167603 844.287964,446.509003 843.860779,449.796112 
	C840.958252,448.326538 838.463379,447.488312 836.464600,445.988892 
	C793.950256,414.095093 745.698364,396.898254 693.317383,391.006989 
	C673.191406,388.743408 652.824829,388.700592 632.600098,387.209808 
	C612.043884,385.694580 600.114197,375.086090 595.426880,355.004547 
	C589.544189,329.801575 600.924072,303.687958 623.287048,291.593506 
	C635.306152,285.093292 648.484924,283.934357 661.685364,285.388306 
	C687.324097,288.212280 711.888794,295.258057 735.636047,306.342407 
z"/>
<path fill="#E9AE41" opacity="1.000000" stroke="none" 
	d="
M565.371338,250.611938 
	C513.355591,246.261978 465.626160,256.730011 423.115448,287.383636 
	C411.964813,295.424164 396.457001,295.626160 385.076996,288.153320 
	C376.004211,282.195526 373.735718,274.814148 377.945251,264.930359 
	C383.477509,251.941040 392.047791,241.256088 402.748749,232.175629 
	C428.755341,210.107407 459.326904,197.973175 492.473053,192.335266 
	C539.063538,184.410568 584.314392,190.568436 628.078186,207.915268 
	C642.849426,213.770218 656.334961,222.081757 668.847534,231.901474 
	C670.675232,233.335831 672.444641,234.897491 673.993469,236.622528 
	C676.711182,239.649277 676.986206,243.196274 674.200623,246.105850 
	C663.584045,257.195129 651.631836,266.286926 635.345581,265.699066 
	C629.000732,265.470032 622.598572,263.452972 616.461243,261.500305 
	C599.915833,256.236267 583.104492,252.405258 565.371338,250.611938 
z"/>
<path fill="#EAB042" opacity="1.000000" stroke="none" 
	d="
M355.118225,290.774231 
	C361.644836,302.434692 372.718109,307.463623 384.500153,312.267914 
	C360.678040,346.061737 351.849548,382.915070 359.052460,423.607849 
	C325.895081,423.607849 293.195190,423.607849 259.380371,423.607849 
	C289.092377,369.183899 318.450592,315.407990 347.808838,261.632050 
	C348.481781,261.782135 349.154724,261.932190 349.827698,262.082245 
	C349.403687,271.990265 349.808044,281.722839 355.118225,290.774231 
z"/>
<path fill="#2D646B" opacity="1.000000" stroke="none" 
	d="
M575.431396,342.381836 
	C565.665894,354.772308 551.408447,358.664642 537.862549,352.861145 
	C525.016174,347.357361 517.948059,333.969727 520.170593,319.351532 
	C522.244690,305.710541 533.731262,294.848083 547.821350,293.203247 
	C565.694580,291.116821 582.452148,307.004181 581.540344,325.024139 
	C581.220825,331.338745 579.765320,337.146545 575.431396,342.381836 
z"/>
<path fill="#EAB144" opacity="1.000000" stroke="none" 
	d="
M630.396912,427.905273 
	C628.143494,427.570618 626.292480,427.413757 624.554749,426.884735 
	C620.794739,425.740173 618.824097,423.243866 618.825928,419.136078 
	C618.827881,414.736664 621.491394,412.414215 625.207764,412.179169 
	C635.654968,411.518433 646.169067,410.735809 656.598022,411.233154 
	C673.817200,412.054321 690.306458,416.621643 706.277588,423.846405 
	C681.220276,427.053650 656.008484,427.044739 630.396912,427.905273 
z"/>
</svg>